<?xml version="1.0" encoding="utf-8"?>
<!-- Generator: Adobe Illustrator 23.0.1, SVG Export Plug-In . SVG Version: 6.00 Build 0)  -->
<svg version="1.1" id="Layer_1" xmlns="http://www.w3.org/2000/svg" xmlns:xlink="http://www.w3.org/1999/xlink" x="0px" y="0px"
	 viewBox="0 0 300 307.5" style="enable-background:new 0 0 300 307.5;" xml:space="preserve">
<style type="text/css">
	.st0{fill:url(#SVGID_1_);}
	.st1{fill:url(#SVGID_2_);stroke:#FFFFFF;}
</style>
<linearGradient id="SVGID_1_" gradientUnits="userSpaceOnUse" x1="31.04" y1="283.1005" x2="293.189" y2="75.0066" gradientTransform="matrix(1 0 0 -1 0 376)">
	<stop  offset="0" style="stop-color:#9013FE"/>
	<stop  offset="1" style="stop-color:#6610F2"/>
</linearGradient>
<path class="st0" d="M33.9,99.7C33.4,83.5,46,68.5,63.1,68.5h175.4c17.1,0,29.8,15,29.2,31.2c-0.5,15.6,0.2,35.8,5.3,52.3
	c5.1,16.5,13.7,27,27.8,28.3v15.2c-14.1,1.3-22.7,11.8-27.8,28.3c-5.1,16.5-5.8,36.7-5.3,52.3c0.6,16.3-12.1,31.2-29.2,31.2H63.1
	c-17.1,0-29.8-15-29.2-31.2c0.5-15.6-0.2-35.8-5.3-52.3c-5.1-16.5-13.7-27-27.8-28.3v-15.2c14.1-1.3,22.7-11.8,27.8-28.3
	C33.8,135.5,34.5,115.3,33.9,99.7z"/>
<linearGradient id="SVGID_2_" gradientUnits="userSpaceOnUse" x1="109.0829" y1="241.7196" x2="167.6802" y2="142.6188" gradientTransform="matrix(1 0 0 -1 0 376)">
	<stop  offset="0" style="stop-color:#FFFFFF"/>
	<stop  offset="1" style="stop-color:#F1E5FC"/>
</linearGradient>
<path class="st1" d="M154.8,251.5c27.7,0,44.4-13.6,44.4-36c0-16.9-11.9-29.2-29.6-31.1v-0.7c13-2.1,23.2-14.2,23.2-27.7
	c0-19.2-15.2-31.7-38.3-31.7h-52v127.1H154.8z M122.7,140.5h26.9c14.6,0,22.9,6.5,22.9,18.3c0,12.6-9.7,19.6-27.2,19.6h-22.7
	C122.7,178.5,122.7,140.5,122.7,140.5z M122.7,235.4v-41.9h26.7c19.1,0,29.1,7,29.1,20.8c0,13.7-9.7,21.1-27.9,21.1H122.7z"/>
<g>
	<path d="M46.9,32.2c0,2.1-0.4,3.9-1.2,5.5s-1.8,2.9-3.2,3.9c-1.6,1.2-3.3,2.1-5.2,2.6c-1.9,0.5-4.3,0.8-7.2,0.8H13.5V3.2h14.8
		c3.1,0,5.4,0.1,7,0.4c1.6,0.2,3.1,0.7,4.4,1.5c1.5,0.8,2.6,1.9,3.4,3.2c0.7,1.3,1.1,2.9,1.1,4.7c0,2-0.5,3.9-1.5,5.4
		c-1,1.6-2.4,2.8-4.2,3.5v0.2c2.6,0.5,4.7,1.7,6.2,3.3C46.1,27.1,46.9,29.4,46.9,32.2z M33.5,15c0-0.7-0.2-1.4-0.5-2.1
		c-0.3-0.7-0.9-1.2-1.6-1.5c-0.7-0.3-1.5-0.5-2.5-0.5c-0.9,0-2.4,0-4.2,0h-0.7v8.8h1.3c1.8,0,3.1,0,3.8-0.1c0.7,0,1.5-0.2,2.2-0.6
		c0.8-0.4,1.4-0.9,1.7-1.6C33.3,16.7,33.5,15.9,33.5,15z M36.1,32c0-1.3-0.3-2.3-0.8-3c-0.5-0.7-1.3-1.3-2.4-1.7
		c-0.6-0.2-1.5-0.4-2.6-0.4c-1.1,0-2.6,0-4.5,0h-1.9v10.5h0.6c2.7,0,4.6,0,5.7-0.1c1,0,2.1-0.3,3.2-0.8c1-0.4,1.7-1,2.1-1.8
		C35.9,33.9,36.1,33,36.1,32z"/>
	<path d="M82.6,29.2c0,5.2-1.4,9.3-4.3,12.3c-2.8,3-6.8,4.5-12,4.5c-5.1,0-9.1-1.5-12-4.5c-2.9-3-4.3-7.1-4.3-12.3
		c0-5.2,1.4-9.3,4.3-12.3c2.9-3,6.9-4.5,12-4.5c5.2,0,9.2,1.5,12,4.5C81.2,20,82.6,24,82.6,29.2z M72.6,29.3c0-1.9-0.2-3.4-0.5-4.7
		c-0.3-1.2-0.7-2.2-1.3-3c-0.6-0.8-1.2-1.3-2-1.6c-0.7-0.3-1.6-0.5-2.5-0.5c-0.9,0-1.7,0.1-2.4,0.4c-0.7,0.3-1.4,0.8-2,1.6
		c-0.6,0.7-1,1.7-1.3,3c-0.3,1.3-0.5,2.9-0.5,4.8s0.2,3.5,0.5,4.7c0.3,1.2,0.7,2.1,1.2,2.9c0.5,0.7,1.2,1.3,2,1.6s1.7,0.5,2.6,0.5
		c0.8,0,1.6-0.2,2.4-0.5c0.8-0.3,1.5-0.8,2-1.5c0.6-0.8,1-1.8,1.3-2.9C72.4,32.9,72.6,31.3,72.6,29.3z"/>
	<path d="M118.1,29.2c0,5.2-1.4,9.3-4.3,12.3c-2.8,3-6.8,4.5-12,4.5c-5.1,0-9.1-1.5-12-4.5c-2.9-3-4.3-7.1-4.3-12.3
		c0-5.2,1.4-9.3,4.3-12.3c2.9-3,6.9-4.5,12-4.5c5.2,0,9.2,1.5,12,4.5C116.7,20,118.1,24,118.1,29.2z M108,29.3
		c0-1.9-0.2-3.4-0.5-4.7c-0.3-1.2-0.7-2.2-1.3-3c-0.6-0.8-1.2-1.3-2-1.6c-0.7-0.3-1.6-0.5-2.5-0.5c-0.9,0-1.7,0.1-2.4,0.4
		c-0.7,0.3-1.4,0.8-2,1.6c-0.6,0.7-1,1.7-1.3,3c-0.3,1.3-0.5,2.9-0.5,4.8s0.2,3.5,0.5,4.7c0.3,1.2,0.7,2.1,1.2,2.9
		c0.5,0.7,1.2,1.3,2,1.6s1.7,0.5,2.6,0.5c0.8,0,1.6-0.2,2.4-0.5c0.8-0.3,1.5-0.8,2-1.5c0.6-0.8,1-1.8,1.3-2.9
		C107.9,32.9,108,31.3,108,29.3z"/>
	<path d="M135.4,45.6c-4,0-6.9-0.8-8.7-2.5c-1.8-1.6-2.7-4.3-2.7-8.1V20.3h-3.8v-6.9h3.8v-9h9.8v9h9.5v6.9h-9.5v11.2
		c0,1.1,0,2.1,0,2.9c0,0.8,0.2,1.6,0.4,2.2c0.3,0.7,0.7,1.2,1.4,1.6c0.7,0.4,1.6,0.6,2.9,0.6c0.5,0,1.2-0.1,2.1-0.3
		c0.9-0.2,1.4-0.4,1.8-0.6h0.8v6.9c-1.1,0.3-2.2,0.5-3.4,0.7C138.6,45.5,137.2,45.6,135.4,45.6z"/>
	<path d="M156.8,45.9c-2.3,0-4.5-0.3-6.6-0.8c-2.1-0.5-3.8-1.1-5.1-1.8V35h0.8c0.5,0.4,1,0.7,1.6,1.2c0.6,0.4,1.4,0.9,2.5,1.3
		c0.9,0.4,2,0.8,3.1,1.1c1.2,0.3,2.4,0.5,3.7,0.5c1.4,0,2.6-0.2,3.7-0.6c1.1-0.4,1.6-1.1,1.6-2c0-0.7-0.2-1.3-0.7-1.7
		c-0.5-0.4-1.4-0.7-2.8-1.1c-0.7-0.2-1.7-0.4-2.8-0.6c-1.1-0.2-2.2-0.5-3-0.7c-2.5-0.8-4.3-1.9-5.6-3.4c-1.2-1.5-1.9-3.5-1.9-5.9
		c0-1.4,0.3-2.7,1-4c0.6-1.2,1.6-2.4,2.8-3.3c1.3-1,2.8-1.7,4.6-2.3c1.8-0.6,3.9-0.8,6.2-0.8c2.2,0,4.2,0.2,6.1,0.7
		c1.9,0.4,3.4,1,4.7,1.6v8H170c-0.3-0.3-0.9-0.6-1.6-1.1c-0.7-0.4-1.4-0.8-2.1-1.1c-0.8-0.4-1.7-0.7-2.8-0.9c-1-0.2-2.1-0.4-3.1-0.4
		c-1.4,0-2.6,0.2-3.6,0.7c-1,0.5-1.5,1.1-1.5,1.9c0,0.7,0.2,1.3,0.7,1.7s1.5,0.8,3.2,1.2c0.8,0.2,1.8,0.4,2.9,0.6
		c1.1,0.2,2.1,0.5,3.2,0.8c2.3,0.7,4,1.8,5.2,3.2c1.2,1.4,1.8,3.3,1.8,5.6c0,1.5-0.3,2.9-1,4.2c-0.7,1.3-1.7,2.5-2.9,3.4
		c-1.3,1-2.9,1.8-4.8,2.3S159.4,45.9,156.8,45.9z"/>
	<path d="M188.9,45.6c-4,0-6.9-0.8-8.7-2.5c-1.8-1.6-2.7-4.3-2.7-8.1V20.3h-3.8v-6.9h3.8v-9h9.8v9h9.5v6.9h-9.5v11.2
		c0,1.1,0,2.1,0,2.9c0,0.8,0.2,1.6,0.4,2.2c0.3,0.7,0.7,1.2,1.4,1.6c0.7,0.4,1.6,0.6,2.9,0.6c0.5,0,1.2-0.1,2.1-0.3
		c0.9-0.2,1.4-0.4,1.8-0.6h0.8v6.9c-1.1,0.3-2.2,0.5-3.4,0.7C192.1,45.5,190.6,45.6,188.9,45.6z"/>
	<path d="M221.9,22.8h-0.8c-0.4-0.1-0.9-0.2-1.6-0.3c-0.7-0.1-1.5-0.1-2.4-0.1c-1,0-2.1,0.1-3.2,0.4c-1.1,0.3-2.2,0.7-3.3,1.1V45
		h-9.8V13.5h9.8V18c0.4-0.4,1.1-0.9,1.9-1.6c0.8-0.6,1.5-1.1,2.2-1.5c0.7-0.4,1.5-0.8,2.5-1.1c0.9-0.3,1.8-0.5,2.7-0.5
		c0.3,0,0.7,0,1.1,0c0.4,0,0.7,0,1.1,0.1V22.8z"/>
	<path d="M243,41.7c-0.7,0.6-1.3,1.1-1.8,1.5s-1.2,0.9-2.1,1.3c-0.9,0.4-1.7,0.8-2.6,1s-2,0.3-3.5,0.3c-2.8,0-5.1-0.9-6.9-2.8
		c-1.8-1.9-2.8-4.2-2.8-7.1c0-2.3,0.5-4.2,1.4-5.7c0.9-1.4,2.3-2.6,4-3.4c1.8-0.9,3.9-1.5,6.4-1.8s5.1-0.6,8-0.8v-0.2
		c0-1.7-0.6-2.9-1.9-3.6c-1.3-0.7-3.2-1-5.8-1c-1.2,0-2.5,0.2-4.1,0.6c-1.6,0.4-3.1,1-4.5,1.6h-0.8v-7.6c1-0.3,2.5-0.6,4.7-1
		c2.2-0.4,4.4-0.6,6.6-0.6c5.4,0,9.4,0.9,11.9,2.7c2.5,1.8,3.7,4.6,3.7,8.3V45H243V41.7z M243,36.8v-6.6c-1.7,0.2-3,0.3-4,0.4
		c-1,0.1-2,0.4-3,0.7c-0.9,0.3-1.5,0.8-2,1.4c-0.5,0.6-0.7,1.4-0.7,2.4c0,1.5,0.4,2.5,1.2,3c0.8,0.6,2,0.8,3.5,0.8
		c0.9,0,1.7-0.2,2.6-0.6S242.3,37.5,243,36.8z"/>
	<path d="M291,28.8c0,5-1.3,9.1-3.8,12.2c-2.6,3.1-5.7,4.6-9.4,4.6c-1.6,0-2.9-0.2-4.1-0.5c-1.2-0.4-2.4-0.9-3.7-1.7v13.1h-9.8V13.5
		h9.8v3.3c1.4-1.2,2.9-2.2,4.4-3c1.5-0.8,3.2-1.2,5.2-1.2c3.7,0,6.5,1.5,8.5,4.4C290,19.9,291,23.8,291,28.8z M280.9,29
		c0-3.1-0.5-5.3-1.4-6.7c-0.9-1.4-2.4-2.1-4.4-2.1c-0.9,0-1.8,0.1-2.6,0.4c-0.9,0.3-1.7,0.7-2.6,1.3v15.9c0.5,0.2,1.1,0.4,1.7,0.5
		c0.6,0.1,1.4,0.1,2.2,0.1c2.4,0,4.2-0.8,5.3-2.3C280.4,34.5,280.9,32.1,280.9,29z"/>
</g>
</svg>
