<?xml version="1.0" encoding="utf-8"?>
<!-- Generator: Adobe Illustrator 23.0.1, SVG Export Plug-In . SVG Version: 6.00 Build 0)  -->
<svg version="1.1"
	 id="svg3476" inkscape:version="0.91 r13725" sodipodi:docname="CSS3.svg" xmlns:cc="http://creativecommons.org/ns#" xmlns:dc="http://purl.org/dc/elements/1.1/" xmlns:inkscape="http://www.inkscape.org/namespaces/inkscape" xmlns:rdf="http://www.w3.org/1999/02/22-rdf-syntax-ns#" xmlns:sodipodi="http://sodipodi.sourceforge.net/DTD/sodipodi-0.dtd" xmlns:svg="http://www.w3.org/2000/svg"
	 xmlns="http://www.w3.org/2000/svg" xmlns:xlink="http://www.w3.org/1999/xlink" x="0px" y="0px" viewBox="0 0 300 414"
	 style="enable-background:new 0 0 300 414;" xml:space="preserve">
<style type="text/css">
	.st0{fill:#264DE4;}
	.st1{fill:#2965F1;}
	.st2{fill:#EBEBEB;}
	.st3{fill:#FFFFFF;}
</style>
<sodipodi:namedview  bordercolor="#666666" borderopacity="1.0" fit-margin-bottom="0" fit-margin-left="0" fit-margin-right="0" fit-margin-top="0" id="base" inkscape:current-layer="layer1" inkscape:cx="181.367" inkscape:cy="256" inkscape:document-units="px" inkscape:pageopacity="0.0" inkscape:pageshadow="2" inkscape:window-height="704" inkscape:window-maximized="1" inkscape:window-width="1366" inkscape:window-x="0" inkscape:window-y="27" inkscape:zoom="0.35" pagecolor="#ffffff" showgrid="false">
	</sodipodi:namedview>
<g id="layer1" transform="translate(-193.633,-276.3622)" inkscape:groupmode="layer" inkscape:label="Calque 1">
	<g id="g3013" transform="translate(119,276.3622)">
		<polygon id="polygon2989" class="st0" points="375.2,69.6 347.9,375.8 225,409.9 102.5,375.9 75.2,69.6 		"/>
		<polygon id="polygon2991" class="st1" points="324.5,356.3 347.8,94.7 225.2,94.7 225.2,383.8 		"/>
		<polygon id="polygon2993" class="st2" points="137.8,208.2 141.1,245.8 225.2,245.8 225.2,208.2 		"/>
		<polygon id="polygon2995" class="st2" points="225.2,132.2 225.1,132.2 131,132.2 134.4,169.8 225.2,169.8 		"/>
		<polygon id="polygon2997" class="st2" points="225.2,344.9 225.2,305.8 225,305.8 183.2,294.5 180.5,264.6 160.2,264.6 
			142.8,264.6 148.1,323.6 225,344.9 		"/>
		<polygon id="polygon3005" class="st3" points="271.3,245.8 266.9,294.5 225.1,305.8 225.1,344.9 302.1,323.6 302.6,317.2 
			311.4,218.3 312.4,208.2 319.1,132.2 225.1,132.2 225.1,169.8 278,169.8 274.6,208.2 225.1,208.2 225.1,245.8 		"/>
	</g>
</g>
<g>
	<path d="M118.6,45.4c-6.3,0-11.2-1.9-14.9-5.7c-3.7-3.8-5.5-9.1-5.5-16c0-6.6,1.8-11.9,5.5-15.8c3.7-3.9,8.7-5.9,15-5.9
		c1.7,0,3.2,0.1,4.5,0.3c1.3,0.2,2.6,0.4,3.8,0.8c1,0.3,2,0.7,3.1,1.2s2,0.9,2.7,1.3v10h-1.1c-0.5-0.4-1.1-1-1.9-1.6
		c-0.8-0.6-1.6-1.2-2.6-1.8c-1-0.6-2-1.1-3.2-1.5c-1.2-0.4-2.4-0.6-3.7-0.6c-1.5,0-2.9,0.2-4.2,0.7c-1.3,0.5-2.5,1.3-3.6,2.5
		c-1,1.1-1.9,2.5-2.6,4.3c-0.7,1.8-1,4-1,6.4c0,2.6,0.3,4.8,1,6.6c0.7,1.8,1.6,3.2,2.7,4.3c1.1,1,2.3,1.8,3.6,2.3
		c1.3,0.5,2.7,0.7,4,0.7c1.4,0,2.7-0.2,4-0.7c1.3-0.5,2.3-1,3.2-1.5c0.9-0.6,1.8-1.2,2.5-1.8c0.7-0.6,1.3-1.1,1.9-1.6h1v9.8
		c-0.8,0.4-1.7,0.8-2.7,1.2c-1,0.5-2,0.8-3.1,1.2c-1.3,0.4-2.5,0.7-3.7,0.9C122.2,45.3,120.6,45.4,118.6,45.4z"/>
	<path d="M151.9,45.3c-3.2,0-6-0.3-8.4-0.9c-2.4-0.6-4.7-1.4-6.8-2.3v-9.9h1c2.1,1.8,4.4,3.1,6.9,4.1s5,1.4,7.4,1.4
		c0.6,0,1.4-0.1,2.4-0.2c1-0.1,1.8-0.3,2.4-0.6c0.7-0.3,1.3-0.8,1.9-1.3c0.5-0.6,0.8-1.3,0.8-2.3c0-1-0.4-1.9-1.2-2.6
		c-0.8-0.7-1.8-1.1-2.9-1.4c-1.4-0.4-2.9-0.7-4.6-1.1c-1.6-0.3-3.1-0.7-4.5-1.2c-3.2-1.1-5.6-2.7-7-4.6c-1.4-1.9-2.1-4.3-2.1-7.2
		c0-3.9,1.7-7.1,5-9.5c3.3-2.4,7.4-3.6,12.4-3.6c2.5,0,5,0.3,7.4,0.8c2.5,0.5,4.7,1.2,6.6,2v9.5h-0.9c-1.6-1.3-3.4-2.5-5.7-3.4
		c-2.2-0.9-4.5-1.4-6.9-1.4c-0.9,0-1.7,0.1-2.5,0.2c-0.7,0.1-1.5,0.4-2.3,0.8c-0.7,0.3-1.2,0.7-1.7,1.3c-0.5,0.6-0.7,1.2-0.7,2
		c0,1.1,0.4,1.9,1.1,2.5c0.8,0.6,2.2,1.2,4.4,1.7c1.4,0.3,2.8,0.6,4.1,0.9c1.3,0.3,2.7,0.7,4.2,1.2c2.9,1,5.1,2.5,6.5,4.2
		c1.4,1.8,2.1,4.1,2.1,7c0,4.2-1.6,7.5-4.9,10C161.8,44.1,157.4,45.3,151.9,45.3z"/>
	<path d="M188.3,45.3c-3.2,0-6-0.3-8.4-0.9c-2.4-0.6-4.7-1.4-6.8-2.3v-9.9h1c2.1,1.8,4.4,3.1,6.9,4.1c2.5,1,5,1.4,7.4,1.4
		c0.6,0,1.4-0.1,2.4-0.2c1-0.1,1.8-0.3,2.4-0.6c0.7-0.3,1.3-0.8,1.9-1.3c0.5-0.6,0.8-1.3,0.8-2.3c0-1-0.4-1.9-1.2-2.6
		c-0.8-0.7-1.8-1.1-2.9-1.4c-1.4-0.4-2.9-0.7-4.6-1.1c-1.6-0.3-3.1-0.7-4.5-1.2c-3.2-1.1-5.6-2.7-7-4.6c-1.4-1.9-2.1-4.3-2.1-7.2
		c0-3.9,1.7-7.1,5-9.5c3.3-2.4,7.4-3.6,12.4-3.6c2.5,0,5,0.3,7.4,0.8c2.5,0.5,4.7,1.2,6.6,2v9.5h-0.9c-1.6-1.3-3.4-2.5-5.7-3.4
		c-2.2-0.9-4.5-1.4-6.9-1.4c-0.9,0-1.7,0.1-2.5,0.2c-0.7,0.1-1.5,0.4-2.3,0.8c-0.7,0.3-1.2,0.7-1.7,1.3c-0.5,0.6-0.7,1.2-0.7,2
		c0,1.1,0.4,1.9,1.1,2.5c0.8,0.6,2.2,1.2,4.4,1.7c1.4,0.3,2.8,0.6,4.1,0.9c1.3,0.3,2.7,0.7,4.2,1.2c2.9,1,5.1,2.5,6.5,4.2
		c1.4,1.8,2.1,4.1,2.1,7c0,4.2-1.6,7.5-4.9,10C198.3,44.1,193.8,45.3,188.3,45.3z"/>
</g>
</svg>
