<?xml version="1.0" encoding="utf-8"?>
<!-- Generator: Adobe Illustrator 23.0.1, SVG Export Plug-In . SVG Version: 6.00 Build 0)  -->
<svg version="1.1" xmlns="http://www.w3.org/2000/svg" xmlns:xlink="http://www.w3.org/1999/xlink" x="0px" y="0px"
	 viewBox="0 0 300 414" style="enable-background:new 0 0 300 414;" xml:space="preserve">
<style type="text/css">
	.st0{fill:#E44D26;}
	.st1{fill:#F16529;}
	.st2{fill:#EBEBEB;}
	.st3{fill:#FFFFFF;}
</style>
<g id="Layer_2">
	<title>HTML5 Logo</title>
	<path class="st0" d="M26.8,375.7L-0.5,69.4h300l-27.3,306.1l-123,34.1"/>
	<path class="st1" d="M149.5,383.5v-289h122.6l-23.4,261.3"/>
	<path class="st2" d="M55.2,132h94.3v37.5H96.4l3.5,38.5h49.6v37.5h-84 M67.1,264.3h37.7l2.6,30l42,11.2v39.2l-77.1-21.5"/>
	<path class="st3" d="M243.4,132h-94.1v37.5H240 M236.6,208h-87.2v37.5h46.3l-4.4,48.8l-41.9,11.2v39l76.9-21.3"/>
</g>
<g id="Layer_1">
	<g>
		<path d="M108.9,45H98.4V26.5H84.1V45H73.6V3.2h10.5v15.3h14.3V3.2h10.5V45z"/>
		<path d="M125.5,45V11.2h-12.4v-8h35.2v8H136V45H125.5z"/>
		<path d="M195.4,45H185V17.3l-7.6,17.9h-7.2l-7.6-17.9V45h-9.9V3.2h12.1l9.3,20.6l9.2-20.6h12.1V45z"/>
		<path d="M232,45h-27.9V3.2h10.5V37H232V45z"/>
	</g>
</g>
</svg>
