<?xml version="1.0" encoding="utf-8"?>
<!-- Generator: Adobe Illustrator 23.0.1, SVG Export Plug-In . SVG Version: 6.00 Build 0)  -->
<svg version="1.1"
	 id="svg2" inkscape:version="0.48.4 r9939" sodipodi:docname="javascript.svg" xmlns:cc="http://creativecommons.org/ns#" xmlns:dc="http://purl.org/dc/elements/1.1/" xmlns:inkscape="http://www.inkscape.org/namespaces/inkscape" xmlns:rdf="http://www.w3.org/1999/02/22-rdf-syntax-ns#" xmlns:sodipodi="http://sodipodi.sourceforge.net/DTD/sodipodi-0.dtd" xmlns:svg="http://www.w3.org/2000/svg"
	 xmlns="http://www.w3.org/2000/svg" xmlns:xlink="http://www.w3.org/1999/xlink" x="0px" y="0px" viewBox="0 0 300 410.7"
	 style="enable-background:new 0 0 300 410.7;" xml:space="preserve">
<style type="text/css">
	.st0{fill:#D6BA32;}
	.st1{fill:#FFDA3E;}
	.st2{fill:#EBEBEB;}
</style>
<sodipodi:namedview  bordercolor="#666666" borderopacity="1.0" fit-margin-bottom="0" fit-margin-left="0" fit-margin-right="0" fit-margin-top="0" id="base" inkscape:current-layer="layer1" inkscape:cx="50.16802" inkscape:cy="19.624571" inkscape:document-units="px" inkscape:pageopacity="0.0" inkscape:pageshadow="2" inkscape:window-height="764" inkscape:window-maximized="0" inkscape:window-width="1026" inkscape:window-x="220" inkscape:window-y="220" inkscape:zoom="0.77995601" pagecolor="#ffffff" showgrid="false">
	</sodipodi:namedview>
<g id="layer1" transform="translate(-326.59295,-168.33349)" inkscape:groupmode="layer" inkscape:label="Layer 1">
	<g id="g8487" transform="translate(-202.57553,-38.463711)">
		<g id="g3768" transform="matrix(1.25,0,0,1.25,-2.5065195,174.1722)">
			<path id="path3770" inkscape:connector-curvature="0" class="st0" d="M425.3,82.5c26.8-1.1,53.7,0.3,80.6-0.1
				c29.6-0.9,59.2-0.2,88.9-0.1c23.5,0.1,47-0.1,70.6,0.1c-7.4,81.6-14.9,163.2-21.7,244.9c-31.5,9-63,17.8-94.6,26.7
				c-4,1.7-8.2,0.1-12.1-0.9c-29.9-8.6-59.9-17.1-89.9-25.4C439.3,245.9,432,164.2,425.3,82.5 M545.8,103.7
				c-1.1,40.3-0.2,80.5-0.5,120.8c0.3,36.8-0.5,73.6,0.4,110.5c26.5-6.2,52.6-13.9,78.7-21.5c6.6-69.9,13-139.8,18.5-209.7
				C610.6,103.4,578.2,103.8,545.8,103.7 M512.1,260.9c-15.6-4.3-30.9-9.1-46.7-12.5c-0.5,9.4-0.3,18.7,0.8,28
				c23.1,5.6,45.7,13,68.8,18.5c0.2-53.3-0.1-106.6,0.1-159.9c-7.5-0.2-15.1-0.3-22.6-0.5C511.7,176.7,512.5,218.8,512.1,260.9
				L512.1,260.9z"/>
		</g>
		<g id="g3796" transform="matrix(1.25,0,0,1.25,-2.5065195,174.1722)">
			<path id="path3798" inkscape:connector-curvature="0" class="st1" d="M545.8,103.7c32.4,0.1,64.8-0.3,97.1,0
				c-5.5,70-11.9,139.8-18.5,209.7c-26.1,7.6-52.3,15.2-78.7,21.5c-1-36.8-0.1-73.6-0.4-110.5C545.7,184.3,544.7,144,545.8,103.7
				 M554.9,135c0.1,34.7,0.1,69.3,0,104c15.8-2.6,31.6-5.5,47.4-8.4c-0.2,8.1-0.6,16.1-0.9,24.2c-15.4,4.1-30.7,8.3-46.1,12.1
				c-0.2,9.3-0.3,18.6-0.2,28c19.5-4.4,38.6-9.8,57.9-14.7c2.4-1.1,7.1-1,6.9-4.8c2.3-24.9,3.8-49.9,6.1-74.9
				c-16,1.3-31.9,4-47.9,5.1c-0.1-14.2-0.2-28.3,0.1-42.5c16.8,0,33.7,0,50.5,0c1.1-9.4,2-18.9,2.7-28.4
				C605.8,134.9,580.4,134.6,554.9,135L554.9,135z"/>
		</g>
		<path id="path3806" inkscape:connector-curvature="0" class="st2" d="M637.7,500.4c0.4-52.6-0.6-105.3,0.5-157.9
			c9.4,0.2,18.8,0.3,28.3,0.6c-0.2,66.6,0.1,133.3-0.1,199.9c-28.9-6.9-57.1-16.1-86-23.2c-1.3-11.6-1.5-23.3-1-35
			C599,488.9,618.2,495,637.7,500.4z"/>
	</g>
</g>
<g>
	<path d="M24.8,33.5c0,1.8-0.3,3.5-0.9,5.1c-0.6,1.6-1.6,3-2.8,4.1c-1.4,1.3-3.1,2.2-5,2.8c-1.9,0.6-4.1,0.9-6.6,0.9
		c-1.9,0-3.6-0.1-5.2-0.2c-1.6-0.1-3.1-0.3-4.3-0.6v-8.5h1c0.8,0.3,1.7,0.7,2.6,0.9c0.9,0.3,2.1,0.4,3.5,0.4c1.9,0,3.3-0.3,4.3-0.8
		c1-0.5,1.7-1.3,2.1-2.2c0.4-0.9,0.7-2,0.7-3.2c0-1.2,0.1-2.6,0.1-4V11.5H4.7V4h20.1V33.5z"/>
	<path d="M49.8,42.4c-0.7,0.6-1.3,1.1-1.8,1.5c-0.5,0.4-1.2,0.9-2.1,1.3c-0.9,0.4-1.7,0.8-2.6,1s-2,0.3-3.5,0.3
		c-2.8,0-5.1-0.9-6.9-2.8c-1.8-1.9-2.8-4.2-2.8-7.1c0-2.3,0.5-4.2,1.4-5.7c0.9-1.4,2.3-2.6,4-3.4c1.8-0.9,3.9-1.5,6.4-1.8
		s5.1-0.6,8-0.8v-0.2c0-1.7-0.6-2.9-1.9-3.6c-1.3-0.7-3.2-1-5.8-1c-1.2,0-2.5,0.2-4.1,0.6c-1.6,0.4-3.1,1-4.5,1.6h-0.8v-7.6
		c1-0.3,2.5-0.6,4.7-1c2.2-0.4,4.4-0.6,6.6-0.6c5.4,0,9.4,0.9,11.9,2.7c2.5,1.8,3.7,4.6,3.7,8.3v21.5h-9.8V42.4z M49.8,37.5V31
		c-1.7,0.2-3,0.3-4,0.4c-1,0.1-2,0.4-3,0.7c-0.9,0.3-1.5,0.8-2,1.4c-0.5,0.6-0.7,1.4-0.7,2.4c0,1.5,0.4,2.5,1.2,3
		c0.8,0.6,2,0.8,3.5,0.8c0.9,0,1.7-0.2,2.6-0.6S49,38.3,49.8,37.5z"/>
	<path d="M96.3,14.2L85,45.8H74.3L63,14.2h10.3l6.5,20.9l6.4-20.9H96.3z"/>
	<path d="M117.4,42.4c-0.7,0.6-1.3,1.1-1.8,1.5s-1.2,0.9-2.1,1.3c-0.9,0.4-1.7,0.8-2.6,1s-2,0.3-3.5,0.3c-2.8,0-5.1-0.9-6.9-2.8
		c-1.8-1.9-2.8-4.2-2.8-7.1c0-2.3,0.5-4.2,1.4-5.7c0.9-1.4,2.3-2.6,4-3.4c1.8-0.9,3.9-1.5,6.4-1.8s5.1-0.6,8-0.8v-0.2
		c0-1.7-0.6-2.9-1.9-3.6c-1.3-0.7-3.2-1-5.8-1c-1.2,0-2.5,0.2-4.1,0.6c-1.6,0.4-3.1,1-4.5,1.6h-0.8v-7.6c1-0.3,2.5-0.6,4.7-1
		c2.2-0.4,4.4-0.6,6.6-0.6c5.4,0,9.4,0.9,11.9,2.7c2.5,1.8,3.7,4.6,3.7,8.3v21.5h-9.8V42.4z M117.4,37.5V31c-1.7,0.2-3,0.3-4,0.4
		c-1,0.1-2,0.4-3,0.7c-0.9,0.3-1.5,0.8-2,1.4c-0.5,0.6-0.7,1.4-0.7,2.4c0,1.5,0.4,2.5,1.2,3c0.8,0.6,2,0.8,3.5,0.8
		c0.9,0,1.7-0.2,2.6-0.6S116.7,38.3,117.4,37.5z"/>
	<path d="M148,46.5c-3.2,0-6-0.3-8.4-0.9s-4.7-1.4-6.8-2.3v-9.9h1c2.1,1.8,4.4,3.1,6.9,4.1c2.5,1,5,1.4,7.4,1.4
		c0.6,0,1.4-0.1,2.4-0.2s1.8-0.3,2.4-0.6c0.7-0.3,1.3-0.8,1.9-1.3c0.5-0.6,0.8-1.3,0.8-2.3c0-1-0.4-1.9-1.2-2.6
		c-0.8-0.7-1.8-1.1-2.9-1.4c-1.4-0.4-2.9-0.7-4.6-1.1s-3.1-0.7-4.5-1.2c-3.2-1.1-5.6-2.7-7-4.6c-1.4-1.9-2.1-4.3-2.1-7.2
		c0-3.9,1.7-7.1,5-9.5c3.3-2.4,7.5-3.6,12.4-3.6c2.5,0,5,0.3,7.4,0.8c2.5,0.5,4.7,1.2,6.6,2v9.5h-0.9c-1.6-1.3-3.4-2.5-5.7-3.4
		c-2.2-0.9-4.5-1.4-6.9-1.4c-0.9,0-1.7,0.1-2.5,0.2c-0.7,0.1-1.5,0.4-2.3,0.8c-0.7,0.3-1.2,0.7-1.7,1.3c-0.5,0.6-0.7,1.2-0.7,2
		c0,1.1,0.4,1.9,1.1,2.5c0.8,0.6,2.2,1.2,4.4,1.7c1.4,0.3,2.8,0.6,4.1,0.9c1.3,0.3,2.7,0.7,4.2,1.2c2.9,1,5.1,2.5,6.5,4.2
		c1.4,1.8,2.1,4.1,2.1,7c0,4.2-1.6,7.5-4.9,10C157.9,45.3,153.5,46.5,148,46.5z"/>
	<path d="M186.4,46.6c-2.6,0-5-0.3-7.1-1c-2.2-0.7-4-1.7-5.6-3c-1.6-1.4-2.8-3.1-3.7-5.2c-0.9-2.1-1.3-4.5-1.3-7.3
		c0-3,0.5-5.6,1.4-7.7c1-2.1,2.2-3.9,3.9-5.2c1.6-1.3,3.4-2.3,5.5-2.9c2.1-0.6,4.3-0.9,6.6-0.9c1.7,0,3.5,0.2,5.2,0.6
		c1.7,0.4,3.5,1,5.3,1.9v8.4h-1.3c-0.4-0.4-0.9-0.8-1.4-1.2s-1.2-0.9-1.9-1.2c-0.7-0.4-1.5-0.7-2.4-1s-1.9-0.4-3-0.4
		c-2.5,0-4.5,0.9-5.8,2.6c-1.4,1.8-2.1,4.1-2.1,7.1c0,3.2,0.7,5.5,2.2,7.1c1.5,1.6,3.4,2.3,5.9,2.3c1.2,0,2.3-0.1,3.3-0.4
		c0.9-0.3,1.7-0.6,2.4-1c0.7-0.4,1.2-0.8,1.7-1.2c0.5-0.4,0.9-0.8,1.2-1.1h1.3v8.4c-0.6,0.2-1.2,0.5-2,0.8c-0.7,0.3-1.5,0.6-2.3,0.8
		c-1,0.3-1.8,0.5-2.7,0.6C188.8,46.5,187.7,46.6,186.4,46.6z"/>
	<path d="M222.4,23.5h-0.8c-0.4-0.1-0.9-0.2-1.6-0.3c-0.7-0.1-1.5-0.1-2.4-0.1c-1,0-2.1,0.1-3.2,0.4c-1.1,0.3-2.2,0.7-3.3,1.1v21.1
		h-9.8V14.2h9.8v4.5c0.4-0.4,1.1-0.9,1.9-1.6s1.5-1.1,2.2-1.5c0.7-0.4,1.5-0.8,2.5-1.1c0.9-0.3,1.8-0.5,2.7-0.5c0.3,0,0.7,0,1.1,0
		s0.7,0,1.1,0.1V23.5z"/>
	<path d="M236.3,9.8h-10.4V2.1h10.4V9.8z M236,45.8h-9.8V14.2h9.8V45.8z"/>
	<path d="M274.4,29.6c0,5-1.3,9.1-3.8,12.2c-2.6,3.1-5.7,4.6-9.4,4.6c-1.6,0-2.9-0.2-4.1-0.5c-1.2-0.4-2.4-0.9-3.7-1.7v13.1h-9.8
		V14.2h9.8v3.3c1.4-1.2,2.9-2.2,4.4-3c1.5-0.8,3.2-1.2,5.2-1.2c3.7,0,6.5,1.5,8.5,4.4C273.4,20.6,274.4,24.6,274.4,29.6z
		 M264.4,29.8c0-3.1-0.5-5.3-1.4-6.7c-0.9-1.4-2.4-2.1-4.4-2.1c-0.9,0-1.8,0.1-2.6,0.4c-0.9,0.3-1.7,0.7-2.6,1.3v15.9
		c0.5,0.2,1.1,0.4,1.7,0.5s1.4,0.1,2.2,0.1c2.4,0,4.2-0.8,5.3-2.3C263.8,35.3,264.4,32.9,264.4,29.8z"/>
	<path d="M291.8,46.4c-4,0-6.9-0.8-8.7-2.5c-1.8-1.6-2.7-4.3-2.7-8.1V21.1h-3.8v-6.9h3.8v-9h9.8v9h9.5v6.9h-9.5v11.2
		c0,1.1,0,2.1,0,2.9c0,0.8,0.2,1.6,0.4,2.2c0.3,0.7,0.7,1.2,1.4,1.6c0.7,0.4,1.6,0.6,2.9,0.6c0.5,0,1.2-0.1,2.1-0.3
		c0.9-0.2,1.4-0.4,1.8-0.6h0.8v6.9c-1.1,0.3-2.2,0.5-3.4,0.7S293.5,46.4,291.8,46.4z"/>
</g>
</svg>
